<svg width="54" height="54" viewBox="0 0 54 54" fill="none" xmlns="http://www.w3.org/2000/svg">
<circle cx="27" cy="27" r="27" fill="white"/>
<mask id="mask0" mask-type="alpha" maskUnits="userSpaceOnUse" x="0" y="0" width="54" height="54">
<circle cx="27" cy="27" r="27" fill="white"/>
</mask>
<g mask="url(#mask0)">
<path fill-rule="evenodd" clip-rule="evenodd" d="M17.8396 34.0568C14.9562 30.6724 13.0047 26.5247 13.3308 21.8771C14.2704 8.486 32.9112 11.4319 36.5373 18.1905C40.1633 24.9492 39.7324 42.0931 35.0461 43.3011C33.1772 43.7828 29.1959 42.6027 25.1439 40.1604L27.6873 58.1539H12.6696L17.8396 34.0568Z" fill="#B28B67"/>
<path fill-rule="evenodd" clip-rule="evenodd" d="M29.914 19.1707C27.8761 20.3107 26.4257 22.4468 24.6799 25.2488C24.2547 25.0816 23.7916 24.9898 23.307 24.9898C21.2335 24.9898 19.5526 26.6708 19.5526 28.7443C19.5526 29.7969 19.9858 30.7483 20.6837 31.4301C19.8149 32.6563 18.8413 33.9372 17.7257 35.2589C13.5625 32.7612 10.4659 25.4813 14.441 18.4536C17.8612 4.37645 37.2412 13.114 40.9697 10.7398C41.7847 15.8481 39.156 19.9671 29.914 19.1707Z" fill="#191847"/>
</g>
</svg>
