<svg id="Capa_1" enable-background="new 0 0 512 512" height="512" viewBox="0 0 512 512" width="512" xmlns="http://www.w3.org/2000/svg"><g><path d="m509.177 338.241c-1.144-1.59-28.529-39.389-72.984-77.614-26.295-22.609-53.146-40.667-79.809-53.671-33.952-16.559-67.727-24.956-100.384-24.956-32.658 0-66.432 8.396-100.383 24.956-26.663 13.004-53.514 31.062-79.809 53.671-44.456 38.225-71.84 76.024-72.984 77.614-3.764 5.233-3.764 12.286 0 17.519 1.144 1.59 28.529 39.389 72.984 77.614 26.295 22.609 53.146 40.667 79.809 53.671 33.951 16.559 67.725 24.955 100.383 24.955 32.657 0 66.432-8.396 100.384-24.956 26.662-13.004 53.514-31.062 79.809-53.671 44.455-38.225 71.841-76.024 72.984-77.614 3.764-5.233 3.764-12.285 0-17.518zm-253.177-126.241c63.949 0 122.375 38.577 160.127 70.939 11.811 10.125 22.397 20.297 31.522 29.697-45.192-14.272-113.947-30.636-191.649-30.636-77.655 0-146.373 16.344-191.567 30.61 41.175-42.347 112.243-100.61 191.567-100.61zm0 180c35.841 0 65-29.159 65-65 0-3.772-.337-7.504-.977-11.17 10.542 1.234 20.788 2.722 30.686 4.393.179 2.291.292 4.55.292 6.776 0 52.383-42.617 95-95 95s-95-42.617-95-95c0-2.226.112-4.485.291-6.776 9.898-1.671 20.144-3.159 30.686-4.393-.641 3.666-.978 7.398-.978 11.17 0 35.841 29.159 65 65 65zm-35-65c0-4.861 1.036-9.606 2.987-14.014 10.478-.633 21.163-.986 32.013-.986s21.534.353 32.014.986c1.95 4.407 2.986 9.152 2.986 14.014 0 19.299-15.701 35-35 35s-35-15.701-35-35zm35 155c-63.949 0-122.375-38.577-160.127-70.939-25.366-21.744-45.092-43.709-56.775-57.744 18.733-7.178 51.141-18.32 91.913-27.229-.003.304-.011.609-.011.912 0 68.925 56.075 125 125 125s125-56.075 125-125c0-.304-.008-.608-.011-.912 40.765 8.907 73.168 20.046 91.9 27.224-30.757 36.889-117.316 128.688-216.889 128.688z"/><path d="m430.289 30h39.034l-50.048 76.812c-3.005 4.611-3.243 10.497-.62 15.336 2.622 4.838 7.684 7.853 13.188 7.853h63.106c8.284 0 15-6.716 15-15s-6.716-15-15-15h-35.43l50.048-76.812c3.005-4.611 3.243-10.497.62-15.336-2.622-4.839-7.683-7.853-13.187-7.853h-66.711c-8.284 0-15 6.716-15 15s6.716 15 15 15z"/><path d="m340.303 90h19.021l-30.501 46.811c-3.005 4.611-3.243 10.498-.62 15.336 2.622 4.838 7.684 7.853 13.188 7.853h44.175c8.284 0 15-6.716 15-15s-6.716-15-15-15h-16.498l30.501-46.811c3.005-4.611 3.243-10.498.62-15.336-2.624-4.839-7.685-7.853-13.189-7.853h-46.697c-8.284 0-15 6.716-15 15s6.715 15 15 15z"/></g></svg>